<svg xmlns="http://www.w3.org/2000/svg" width="68" height="68" viewBox="0 0 68 68">
  <g id="Group_1421" data-name="Group 1421" transform="translate(-220.545 -16)">
    <path id="Path_1162" data-name="Path 1162" d="M284.541,16H224.548a4.006,4.006,0,0,0-4,4V80a4.008,4.008,0,0,0,4,4h59.993a4.009,4.009,0,0,0,4-4V20A4.007,4.007,0,0,0,284.541,16Zm0,64s-56.306,0-59.825,0h-.172s0-36.619,0-52.64V20l60,0,0,30Z" fill="#fff"/>
    <path id="Path_1163" data-name="Path 1163" d="M234.743,37.069h13.292l.162.457a6.728,6.728,0,0,0,12.684,0l.162-.457h13.293a1.789,1.789,0,0,0,0-3.577H261.043l-.162-.457a6.728,6.728,0,0,0-12.684,0l-.162.457H234.743a1.788,1.788,0,1,0,0,3.577Zm19.8-4.949a3.161,3.161,0,1,1-3.161,3.16A3.165,3.165,0,0,1,254.539,32.12Z" fill="#fff"/>
    <path id="Path_1164" data-name="Path 1164" d="M274.336,63.187H261.043l-.162-.458a6.729,6.729,0,0,0-12.684,0l-.162.458H234.743a1.788,1.788,0,1,0,0,3.577h13.292l.162.457a6.729,6.729,0,0,0,12.684,0l.162-.457h13.293a1.789,1.789,0,0,0,0-3.577Zm-19.8,4.949a3.161,3.161,0,1,1,3.161-3.161A3.165,3.165,0,0,1,254.539,68.136Z" fill="#fff"/>
    <path id="Path_1165" data-name="Path 1165" d="M269.387,43.391a6.762,6.762,0,0,0-6.343,4.491l-.162.457H234.743a1.789,1.789,0,1,0,0,3.578h28.139l.162.457a6.738,6.738,0,1,0,6.343-8.983Zm0,9.9a3.161,3.161,0,1,1,3.161-3.161A3.164,3.164,0,0,1,269.386,53.289Z" fill="#fff"/>
  </g>
</svg>
