<svg xmlns="http://www.w3.org/2000/svg" width="68" height="68" viewBox="0 0 68 68">
  <g id="Group_1423" data-name="Group 1423" transform="translate(-308.155 -16)">
    <path id="Path_1166" data-name="Path 1166" d="M372.152,16H312.158a4.006,4.006,0,0,0-4,4V80a4.008,4.008,0,0,0,4,4h59.994a4.009,4.009,0,0,0,4-4V20A4.007,4.007,0,0,0,372.152,16Zm0,64s-56.306,0-59.825,0h-.172s0-36.619,0-52.64V20l60,0,0,30Z" fill="#fff"/>
    <g id="Group_1422" data-name="Group 1422">
      <path id="Path_1167" data-name="Path 1167" d="M363.6,48.773l-3.981-3.6a1.83,1.83,0,1,0-2.457,2.713l.462.418h-4.109a2.314,2.314,0,0,1-2.311-2.313,5.979,5.979,0,0,0-5.973-5.971h-4.949a2.314,2.314,0,0,1-2.311-2.313A5.979,5.979,0,0,0,332,31.732H328.18a1.83,1.83,0,0,0,0,3.66H332a2.314,2.314,0,0,1,2.313,2.311,5.947,5.947,0,0,0,1.676,4.142,5.949,5.949,0,0,0-1.676,4.142A2.315,2.315,0,0,1,332,48.3H328.18a1.83,1.83,0,0,0,0,3.66H332a5.979,5.979,0,0,0,5.973-5.973,2.314,2.314,0,0,1,2.311-2.311h4.949a2.314,2.314,0,0,1,2.313,2.311,5.947,5.947,0,0,0,1.676,4.142,5.949,5.949,0,0,0-1.676,4.142,2.315,2.315,0,0,1-2.313,2.313h-4.949a5.978,5.978,0,0,0-5.971,5.971A2.315,2.315,0,0,1,332,64.868H328.18a1.83,1.83,0,0,0,0,3.66H332a5.979,5.979,0,0,0,5.973-5.973,2.314,2.314,0,0,1,2.311-2.311h4.949a5.979,5.979,0,0,0,5.973-5.973,2.314,2.314,0,0,1,2.311-2.311h4.109l-.462.417a1.83,1.83,0,1,0,2.457,2.713l3.981-3.6a1.833,1.833,0,0,0,0-2.713Z" fill="#fff"/>
      <path id="Path_1168" data-name="Path 1168" d="M322.233,31.707a1.842,1.842,0,1,0,1.843,1.843A1.843,1.843,0,0,0,322.233,31.707Z" fill="#fff"/>
      <path id="Path_1169" data-name="Path 1169" d="M322.233,48.286a1.843,1.843,0,1,0,1.843,1.843A1.843,1.843,0,0,0,322.233,48.286Z" fill="#fff"/>
      <path id="Path_1170" data-name="Path 1170" d="M322.233,64.866a1.843,1.843,0,1,0,1.843,1.843A1.843,1.843,0,0,0,322.233,64.866Z" fill="#fff"/>
    </g>
  </g>
</svg>
