<svg xmlns="http://www.w3.org/2000/svg" width="68" height="68" viewBox="0 0 68 68">
  <path id="Path_1159" data-name="Path 1159" d="M86,50a2,2,0,0,1,4,0V80a4.009,4.009,0,0,1-4,4H26a4.009,4.009,0,0,1-4-4V20a4.006,4.006,0,0,1,4-4H56a2,2,0,0,1,0,4L26,20l0,60,60,0ZM72,44a2,2,0,1,1,2-2A2,2,0,0,1,72,44Zm8,0a2,2,0,1,1,2-2A2,2,0,0,1,80,44ZM72,20a2,2,0,1,1,2-2A2,2,0,0,1,72,20Zm8,0a2,2,0,1,1,2-2A2,2,0,0,1,80,20Zm8,24a2,2,0,1,1,2-2A2,2,0,0,1,88,44Zm0-8a2,2,0,1,1,2-2A2,2,0,0,1,88,36Zm0-16a2,2,0,1,1,2-2A2,2,0,0,1,88,20Zm0,8a2,2,0,1,1,2-2A2,2,0,0,1,88,28ZM64,44a2,2,0,1,1,2-2A2,2,0,0,1,64,44Zm0-8a2,2,0,1,1,2-2A2,2,0,0,1,64,36Zm0-16a2,2,0,1,1,2-2A2,2,0,0,1,64,20Zm0,8a2,2,0,1,1,2-2A2,2,0,0,1,64,28ZM54,54.828,35.414,73.414a2,2,0,0,1-2.828-2.828L51.172,52H44a2,2,0,0,1,0-4H56a2,2,0,0,1,2,2V62a2,2,0,0,1-4,0V54.828Z" transform="translate(-22 -16)" fill="#fff"/>
</svg>
