<svg xmlns="http://www.w3.org/2000/svg" width="68" height="68" viewBox="0 0 68 68">
  <g id="Group_1420" data-name="Group 1420" transform="translate(-121.762 -16)">
    <path id="Path_1160" data-name="Path 1160" d="M185.759,16H125.765a4.006,4.006,0,0,0-4,4V80a4.009,4.009,0,0,0,4,4h59.994a4.009,4.009,0,0,0,4-4V20A4.006,4.006,0,0,0,185.759,16Zm0,64s-56.3,0-59.824,0h-.173s0-36.619,0-52.64V24.711c0-.534,0-1.029,0-1.482V20l60,0,0,30Z" fill="#fff"/>
    <path id="Path_1161" data-name="Path 1161" d="M171.271,31.1a6.877,6.877,0,0,0-4.144,1.352H134.761a1.613,1.613,0,0,0,0,3.226h28.984l-13,13H134.761a1.613,1.613,0,0,0,0,3.226h12.758l-4.355,4.355a1.893,1.893,0,0,0-.479.889L141.5,64.9h-6.741a1.612,1.612,0,0,0,0,3.225h8.4l9.1-1.426a1.883,1.883,0,0,0,.865-.476L176.256,43.1A7.022,7.022,0,0,0,171.271,31.1Zm-20,32.47-6.459,1.013,1.014-6.46L164.51,39.433l5.379,5.379Zm22.658-22.725-1.709,1.708-5.378-5.378,1.708-1.708A3.493,3.493,0,0,1,170,34.579a4.07,4.07,0,0,1,1.269-.189A3.786,3.786,0,0,1,174,35.534a3.6,3.6,0,0,1,1.078,2.591A3.772,3.772,0,0,1,173.927,40.841Z" fill="#fff"/>
  </g>
</svg>
