<?xml version="1.0" encoding="utf-8"?>
<!-- Generator: Adobe Illustrator 16.0.0, SVG Export Plug-In . SVG Version: 6.00 Build 0)  -->
<!DOCTYPE svg PUBLIC "-//W3C//DTD SVG 1.1//EN" "http://www.w3.org/Graphics/SVG/1.1/DTD/svg11.dtd">
<svg xmlns="http://www.w3.org/2000/svg" xmlns:xlink="http://www.w3.org/1999/xlink" version="1.1" id="Layer_1" x="0px" y="0px" width="512" height="512" viewBox="0 0 512 512" enable-background="new 0 0 512 512" xml:space="preserve">
<g id="_x38_._dreamcatcher_x2C__feather_x2C__indian_x2C__culture_x2C__country_x2C__civilization_1_">
	<g>
		<g>
			<path fill="#ED5565" d="M395.973,176.011c0,77.306-62.676,139.977-139.982,139.977c-77.306,0-139.978-62.671-139.978-139.977     c0-77.307,62.672-139.979,139.978-139.979C333.297,36.033,395.973,98.705,395.973,176.011z"/>
		</g>
	</g>
	<g>
		<g>
			<path fill="#E6E9ED" d="M379.976,176.011c0,68.468-55.521,123.973-123.985,123.973c-68.468,0-123.973-55.505-123.973-123.973     S187.522,52.038,255.99,52.038C324.454,52.038,379.976,107.543,379.976,176.011z"/>
		</g>
	</g>
	<g opacity="0.2">
		<g>
			<path d="M255.99,52.038c-1.352,0-2.66,0.16-3.999,0.203c66.604,2.129,119.985,56.654,119.985,123.771     c0,67.116-53.381,121.637-119.985,123.77c1.339,0.039,2.647,0.203,3.999,0.203c68.464,0,123.985-55.505,123.985-123.973     S324.454,52.038,255.99,52.038z"/>
		</g>
	</g>
	<g>
		<g>
			<g>
				<path fill="#AC92EC" d="M283.259,241.682c-2.796,16.716-13.106,30.957-27.272,39.189c-14.157-8.232-24.476-22.473-27.276-39.189      c-13.837,9.92-31.111,12.639-46.87,8.479c-4.159-15.759-1.441-33.033,8.479-46.871c-16.797-2.8-30.955-13.119-39.192-27.276      c8.237-14.158,22.477-24.477,39.192-27.194c-9.92-13.837-12.716-31.193-8.479-46.952c15.759-4.16,33.115-1.441,46.87,8.479      c2.801-16.716,13.119-30.955,27.276-39.192c14.166,8.237,24.477,22.476,27.272,39.192c13.763-9.92,31.119-12.638,46.882-8.479      c4.155,15.759,1.438,33.033-8.482,46.87c16.715,2.8,30.947,13.119,39.195,27.276c-8.17,14.157-22.402,24.394-39.195,27.194      c9.842,13.837,12.716,31.116,8.482,46.953C314.378,254.321,297.021,251.603,283.259,241.682z"/>
			</g>
		</g>
	</g>
	<g>
		<g>
			<path fill="#FFCE54" d="M275.979,407.973c0,11.045-8.951,99.98-19.992,99.98c-11.045,0-19.996-88.936-19.996-99.98     s8.951-19.996,19.996-19.996C267.027,387.977,275.979,396.928,275.979,407.973z"/>
		</g>
	</g>
	<g opacity="0.5">
		<g>
			<path fill="#FFFFFF" d="M243.989,407.973c0-9.67,6.87-17.74,15.997-19.59c-1.292-0.266-2.628-0.406-3.999-0.406     c-11.045,0-19.996,8.951-19.996,19.996s8.951,99.98,19.996,99.98c1.371,0,2.707-1.375,3.999-3.795     C250.858,487.082,243.989,417.643,243.989,407.973z"/>
		</g>
	</g>
	<g opacity="0.2">
		<g>
			<path d="M267.98,407.973c0-9.67-6.862-17.74-15.993-19.59c1.297-0.266,2.632-0.406,3.999-0.406     c11.041,0,19.992,8.951,19.992,19.996c0,9.662-6.857,78.953-15.966,96.139l-4.022-11.014     C263.052,467.305,267.98,416.174,267.98,407.973z"/>
		</g>
	</g>
	<g opacity="0.3">
		<g>
			<path fill="#FFFFFF" d="M124.011,176.011c0-75.955,60.54-137.639,135.979-139.775c-1.339-0.039-2.647-0.203-3.999-0.203     c-77.306,0-139.978,62.672-139.978,139.979c0,77.306,62.672,139.977,139.978,139.977c1.352,0,2.66-0.164,3.999-0.203     C184.551,313.646,124.011,251.966,124.011,176.011z"/>
		</g>
	</g>
	<g opacity="0.2">
		<g>
			<path d="M387.974,176.011c0,75.955-60.536,137.635-135.979,139.774c1.335,0.039,2.64,0.203,3.999,0.203     c77.303,0,139.979-62.671,139.979-139.977c0-77.307-62.676-139.979-139.979-139.979c-1.359,0-2.664,0.164-3.999,0.203     C327.438,38.373,387.974,100.056,387.974,176.011z"/>
		</g>
	</g>
	<g>
		<g>
			<path fill="#FFFFFF" d="M140.016,176.011c0-67.117,53.373-121.642,119.974-123.771c-1.339-0.043-2.647-0.203-3.999-0.203     c-68.468,0-123.973,55.506-123.973,123.974s55.505,123.973,123.973,123.973c1.352,0,2.66-0.164,3.999-0.203     C193.389,297.648,140.016,243.127,140.016,176.011z"/>
		</g>
	</g>
	<g>
		<g>
			<path fill="#FFCE54" d="M267.98,176.015c0,6.627-5.366,11.998-11.994,11.998s-11.998-5.37-11.998-11.998     c0-6.628,5.37-11.998,11.998-11.998S267.98,169.387,267.98,176.015z"/>
		</g>
	</g>
	<g>
		<g>
			<path fill="#ED5565" d="M331.984,419.971c0,4.412-3.578,7.998-7.999,7.998c-4.405,0-7.998-3.586-7.998-7.998     c0-4.414,3.593-8,7.998-8C328.406,411.971,331.984,415.557,331.984,419.971z"/>
		</g>
	</g>
	<g>
		<g>
			
				<rect x="315.502" y="347.499" transform="matrix(0.7071 0.7071 -0.7071 0.7071 346.6302 -124.8265)" fill="#A0D468" width="16.967" height="16.967"/>
		</g>
	</g>
	<g>
		<g>
			<path fill="#A0D468" d="M195.998,419.971c0,4.412-3.578,7.998-7.999,7.998c-4.405,0-7.999-3.586-7.999-7.998     c0-4.414,3.593-8,7.999-8C192.42,411.971,195.998,415.557,195.998,419.971z"/>
		</g>
	</g>
	<g>
		<g>
			
				<rect x="179.515" y="347.499" transform="matrix(0.7071 0.7071 -0.7071 0.7071 306.7812 -28.6705)" fill="#ED5565" width="16.968" height="16.968"/>
		</g>
	</g>
	<g>
		<g>
			<path fill="#AC92EC" d="M267.98,359.98c0,6.625-5.37,11.998-11.994,11.998c-6.632,0-11.998-5.373-11.998-11.998     c0-6.623,5.366-11.998,11.998-11.998C262.61,347.982,267.98,353.357,267.98,359.98z"/>
		</g>
	</g>
	<g id="_x38_._dreamcatcher_x2C__feather_x2C__indian_x2C__culture_x2C__country_x2C__civilization">
		<g>
			<g>
				<g>
					<path fill="#3A3847" d="M256.225,208.009c-2.207,0-4.038-1.789-4.038-4s1.75-4,3.96-4h0.078c2.211,0,3.999,1.789,3.999,4       S258.436,208.009,256.225,208.009z"/>
				</g>
			</g>
			<g>
				<g>
					<path fill="#3A3847" d="M256.225,152.019c-2.207,0-4.038-1.789-4.038-3.999s1.75-3.999,3.96-3.999h0.078       c2.211,0,3.999,1.789,3.999,3.999S258.436,152.019,256.225,152.019z"/>
				</g>
			</g>
			<g>
				<g>
					<path fill="#3A3847" d="M270.23,204.26c-2.219,0-4.047-1.789-4.047-4c0-2.21,1.75-3.999,3.953-3.999h0.094       c2.202,0,3.999,1.789,3.999,3.999C274.229,202.471,272.433,204.26,270.23,204.26z"/>
				</g>
			</g>
			<g>
				<g>
					<path fill="#3A3847" d="M242.228,155.769c-2.207,0-4.039-1.789-4.039-4c0-2.21,1.75-3.999,3.96-3.999h0.078       c2.21,0,3.999,1.789,3.999,3.999C246.227,153.98,244.438,155.769,242.228,155.769z"/>
				</g>
			</g>
			<g>
				<g>
					<path fill="#3A3847" d="M280.479,194.011c-2.203,0-4.031-1.788-4.031-3.999c0-2.21,1.75-3.999,3.953-3.999h0.078       c2.202,0,3.999,1.789,3.999,3.999C284.478,192.223,282.681,194.011,280.479,194.011z"/>
				</g>
			</g>
			<g>
				<g>
					<path fill="#3A3847" d="M231.979,166.017c-2.207,0-4.039-1.789-4.039-4s1.75-4,3.96-4h0.078c2.21,0,3.999,1.789,3.999,4       S234.189,166.017,231.979,166.017z"/>
				</g>
			</g>
			<g>
				<g>
					<path fill="#3A3847" d="M284.228,180.014c-2.203,0-4.03-1.789-4.03-3.999c0-2.211,1.749-4,3.952-4h0.078       c2.202,0,3.999,1.789,3.999,4C288.227,178.225,286.43,180.014,284.228,180.014z"/>
				</g>
			</g>
			<g>
				<g>
					<path fill="#3A3847" d="M228.229,180.014c-2.206,0-4.038-1.789-4.038-3.999c0-2.211,1.75-4,3.96-4h0.078c2.211,0,4,1.789,4,4       C232.229,178.225,230.44,180.014,228.229,180.014z"/>
				</g>
			</g>
			<g>
				<g>
					<path fill="#3A3847" d="M280.479,166.017c-2.203,0-4.031-1.789-4.031-4s1.75-4,3.953-4h0.078c2.202,0,3.999,1.789,3.999,4       S282.681,166.017,280.479,166.017z"/>
				</g>
			</g>
			<g>
				<g>
					<path fill="#3A3847" d="M231.979,194.011c-2.207,0-4.039-1.788-4.039-3.999c0-2.21,1.75-3.999,3.96-3.999h0.078       c2.21,0,3.999,1.789,3.999,3.999C235.979,192.223,234.189,194.011,231.979,194.011z"/>
				</g>
			</g>
			<g>
				<g>
					<path fill="#3A3847" d="M270.23,155.769c-2.219,0-4.047-1.789-4.047-4c0-2.21,1.75-3.999,3.953-3.999h0.094       c2.202,0,3.999,1.789,3.999,3.999C274.229,153.98,272.433,155.769,270.23,155.769z"/>
				</g>
			</g>
			<g>
				<g>
					<path fill="#3A3847" d="M242.228,204.26c-2.207,0-4.039-1.789-4.039-4c0-2.21,1.75-3.999,3.96-3.999h0.078       c2.21,0,3.999,1.789,3.999,3.999C246.227,202.471,244.438,204.26,242.228,204.26z"/>
				</g>
			</g>
			<g>
				<g>
					<path fill="#3A3847" d="M255.986,319.988c-79.388,0-143.974-64.585-143.974-143.973S176.599,32.042,255.986,32.042       s143.985,64.586,143.985,143.974S335.374,319.988,255.986,319.988z M255.986,40.04c-74.979,0-135.975,60.997-135.975,135.975       c0,74.978,60.996,135.975,135.975,135.975c74.982,0,135.986-60.997,135.986-135.975       C391.973,101.037,330.969,40.04,255.986,40.04z"/>
				</g>
			</g>
			<g>
				<g>
					<path fill="#3A3847" d="M255.986,303.992c-70.565,0-127.977-57.412-127.977-127.977c0-70.565,57.412-127.977,127.977-127.977       c70.577,0,127.988,57.411,127.988,127.977C383.975,246.58,326.563,303.992,255.986,303.992z M255.986,56.037       c-66.155,0-119.978,53.822-119.978,119.978c0,66.155,53.822,119.977,119.978,119.977c66.156,0,119.99-53.822,119.99-119.977       C375.977,109.859,322.143,56.037,255.986,56.037z"/>
				</g>
			</g>
			<g>
				<g>
					<path fill="#3A3847" d="M233.237,147.223c-1.503,0-2.945-0.852-3.625-2.304c-3.729-7.967-5.62-16.493-5.62-25.339       c0-21.293,11.49-41.18,29.991-51.897c1.234-0.719,2.769-0.719,4.011,0c18.5,10.725,29.998,30.612,29.998,51.897       c0,8.776-1.875,17.243-5.546,25.171c-0.922,1.999-3.312,2.886-5.312,1.944c-2-0.929-2.874-3.308-1.938-5.312       c3.172-6.866,4.797-14.2,4.797-21.804c0-17.661-9.14-34.212-24.008-43.753c-14.86,9.533-23.995,26.085-23.995,43.753       c0,7.667,1.636,15.052,4.862,21.949c0.937,2,0.074,4.382-1.926,5.315C234.381,147.102,233.803,147.223,233.237,147.223z"/>
				</g>
			</g>
			<g>
				<g>
					<path fill="#3A3847" d="M255.986,284.885c-0.691,0-1.386-0.18-2.003-0.539c-18.5-10.717-29.991-30.603-29.991-51.896       c0-8.865,1.898-17.407,5.644-25.39c0.934-1.996,3.308-2.867,5.319-1.922c2,0.938,2.859,3.32,1.922,5.319       c-3.242,6.913-4.886,14.31-4.886,21.992c0,17.669,9.135,34.22,23.995,43.75c14.868-9.537,24.008-26.088,24.008-43.75       c0-7.639-1.625-14.989-4.828-21.844c-0.937-2-0.078-4.378,1.922-5.315c1.984-0.917,4.39-0.078,5.327,1.934       c3.702,7.92,5.577,16.407,5.577,25.226c0,21.285-11.498,41.171-29.998,51.896C257.373,284.705,256.678,284.885,255.986,284.885       z"/>
				</g>
			</g>
			<g>
				<g>
					<path fill="#3A3847" d="M216.818,172.953c-0.449,0-0.906-0.074-1.355-0.234c-8.304-2.987-15.708-7.693-22.004-13.978       c-15.056-15.06-20.992-37.251-15.497-57.911c0.371-1.387,1.453-2.468,2.839-2.839c20.668-5.491,42.863,0.434,57.908,15.489       c6.26,6.269,10.947,13.634,13.939,21.902c0.75,2.074-0.324,4.37-2.402,5.12c-2.062,0.757-4.366-0.324-5.12-2.402       c-2.589-7.155-6.651-13.537-12.076-18.965c-12.486-12.49-30.663-17.743-47.909-13.966c-3.765,17.251,1.48,35.419,13.974,47.913       c5.456,5.448,11.869,9.521,19.059,12.107c2.078,0.75,3.156,3.038,2.41,5.12C219.993,171.938,218.458,172.953,216.818,172.953z"/>
				</g>
			</g>
			<g>
				<g>
					<path fill="#3A3847" d="M315.737,256.055c-15.731,0-31.119-6.167-42.461-17.512c-6.233-6.229-10.924-13.564-13.923-21.801       c-0.758-2.074,0.312-4.37,2.39-5.124c2.07-0.762,4.362,0.316,5.128,2.39c2.594,7.127,6.655,13.478,12.061,18.875       c12.482,12.494,30.619,17.735,47.913,13.978c3.765-17.25-1.484-35.419-13.967-47.913c-5.374-5.366-11.685-9.405-18.762-12.001       c-2.078-0.758-3.14-3.055-2.391-5.128c0.766-2.078,3.094-3.133,5.14-2.379c8.187,3,15.467,7.659,21.668,13.853       c15.045,15.06,20.98,37.247,15.481,57.907c-0.358,1.386-1.452,2.468-2.827,2.839       C326.079,255.395,320.893,256.055,315.737,256.055z"/>
				</g>
			</g>
			<g>
				<g>
					<path fill="#3A3847" d="M199.56,208.009c-21.297,0-41.188-11.49-51.905-29.991c-0.718-1.238-0.718-2.769,0-4.007       c10.721-18.504,30.6-29.998,51.885-29.998c0.008,0,0.012,0,0.02,0c8.885,0,17.446,1.906,25.44,5.667       c2,0.941,2.855,3.323,1.917,5.323c-0.945,1.999-3.324,2.851-5.323,1.917c-6.92-3.257-14.337-4.909-22.035-4.909       c-0.004,0-0.016,0-0.02,0c-17.661,0-34.205,9.139-43.742,24.004c9.533,14.86,26.089,23.995,43.762,23.995       c7.689,0,15.095-1.648,22.012-4.901c1.987-0.941,4.382-0.086,5.323,1.918c0.938,2,0.078,4.382-1.917,5.323       C216.986,206.103,208.437,208.009,199.56,208.009z"/>
				</g>
			</g>
			<g>
				<g>
					<path fill="#3A3847" d="M312.426,208.009c-8.78,0-17.231-1.855-25.121-5.519c-2-0.93-2.874-3.309-1.938-5.312       c0.922-2.004,3.328-2.883,5.297-1.945c6.842,3.171,14.153,4.776,21.762,4.776c17.668,0,34.228-9.135,43.757-23.995       c-9.529-14.857-26.089-23.996-43.741-24.004c-7.593,0-14.936,1.609-21.793,4.784c-2,0.934-4.375,0.059-5.312-1.948       c-0.921-2.004-0.047-4.382,1.953-5.308c7.921-3.667,16.388-5.526,25.152-5.526c21.293,0.008,41.164,11.501,51.881,29.998       c0.719,1.238,0.719,2.769,0,4.007C353.605,196.519,333.719,208.009,312.426,208.009z"/>
				</g>
			</g>
			<g>
				<g>
					<path fill="#3A3847" d="M196.236,256.055c-5.151,0-10.334-0.66-15.427-2.015c-1.386-0.371-2.468-1.453-2.835-2.835       c-5.511-20.676,0.426-42.867,15.493-57.919c6.28-6.28,13.677-10.982,21.984-13.97c2.074-0.781,4.37,0.332,5.116,2.406       c0.75,2.077-0.328,4.37-2.406,5.116c-7.193,2.589-13.599,6.663-19.039,12.103c-12.506,12.49-17.751,30.662-13.974,47.92       c17.243,3.77,35.408-1.48,47.905-13.981c5.413-5.413,9.471-11.779,12.06-18.915c0.758-2.078,3.046-3.144,5.124-2.398       c2.078,0.754,3.152,3.05,2.398,5.124c-2.996,8.249-7.679,15.595-13.927,21.844       C227.367,249.884,211.971,256.055,196.236,256.055z"/>
				</g>
			</g>
			<g>
				<g>
					<path fill="#3A3847" d="M295.507,172.82c-1.641,0-3.156-1.003-3.766-2.62c-0.749-2.074,0.312-4.37,2.375-5.132       c7.062-2.594,13.372-6.628,18.746-11.99c12.498-12.494,17.747-30.666,13.982-47.917c-17.247-3.745-35.431,1.484-47.913,13.974       c-5.405,5.409-9.467,11.755-12.061,18.864c-0.75,2.074-3.054,3.155-5.12,2.39c-2.077-0.754-3.147-3.05-2.39-5.124       c2.991-8.217,7.666-15.548,13.915-21.785c15.044-15.048,37.228-20.992,57.896-15.497c1.391,0.371,2.484,1.453,2.843,2.839       c5.499,20.66-0.437,42.855-15.497,57.915c-6.217,6.19-13.481,10.846-21.637,13.837       C296.428,172.742,295.959,172.82,295.507,172.82z"/>
				</g>
			</g>
			<g>
				<g>
					<path fill="#3A3847" d="M255.986,192.012c-8.822,0-15.997-7.175-15.997-15.997c0-8.823,7.175-15.997,15.997-15.997       s15.993,7.174,15.993,15.997C271.979,184.837,264.809,192.012,255.986,192.012z M255.986,168.016       c-4.409,0-7.998,3.589-7.998,7.999c0,4.409,3.589,7.998,7.998,7.998s7.998-3.589,7.998-7.998       C263.984,171.605,260.396,168.016,255.986,168.016z"/>
				</g>
			</g>
			<g>
				<g>
					<path fill="#3A3847" d="M255.986,44.04c-2.21,0-3.999-1.789-3.999-4v-4c0-2.21,1.789-3.999,3.999-3.999       c2.211,0,3.999,1.789,3.999,3.999v4C259.985,42.25,258.197,44.04,255.986,44.04z"/>
				</g>
			</g>
			<g>
				<g>
					<path fill="#3A3847" d="M255.986,319.988c-2.21,0-3.999-1.789-3.999-4v-3.998c0-2.211,1.789-4,3.999-4       c2.211,0,3.999,1.789,3.999,4v3.998C259.985,318.199,258.197,319.988,255.986,319.988z"/>
				</g>
			</g>
			<g>
				<g>
					<path fill="#3A3847" d="M232.37,46.101c-1.906,0-3.593-1.363-3.933-3.304l-0.695-3.937c-0.387-2.176,1.066-4.25,3.242-4.632       c2.152-0.414,4.249,1.066,4.632,3.242l0.695,3.937c0.387,2.176-1.066,4.25-3.242,4.632       C232.834,46.082,232.6,46.101,232.37,46.101z"/>
				</g>
			</g>
			<g>
				<g>
					<path fill="#3A3847" d="M280.291,317.863c-1.891,0-3.578-1.359-3.922-3.295l-0.703-3.938c-0.391-2.172,1.062-4.25,3.234-4.641       c2.109-0.375,4.249,1.055,4.64,3.234l0.703,3.938c0.391,2.172-1.062,4.248-3.233,4.639       C280.775,317.848,280.525,317.863,280.291,317.863z"/>
				</g>
			</g>
			<g>
				<g>
					<path fill="#3A3847" d="M209.479,52.241c-1.633,0-3.167-1.008-3.757-2.632l-1.367-3.758c-0.758-2.073,0.312-4.37,2.39-5.124       c2.07-0.761,4.37,0.316,5.124,2.391l1.367,3.757c0.758,2.074-0.312,4.37-2.39,5.124       C210.397,52.163,209.933,52.241,209.479,52.241z"/>
				</g>
			</g>
			<g>
				<g>
					<path fill="#3A3847" d="M303.864,311.553c-1.64,0-3.171-1.016-3.765-2.641l-1.359-3.766c-0.75-2.076,0.328-4.373,2.406-5.123       c2.093-0.75,4.358,0.328,5.123,2.406l1.359,3.764c0.75,2.078-0.328,4.375-2.405,5.125       C304.771,311.475,304.317,311.553,303.864,311.553z"/>
				</g>
			</g>
			<g>
				<g>
					<path fill="#3A3847" d="M188.003,62.254c-1.379,0-2.722-0.714-3.464-1.996l-2-3.453c-1.109-1.909-0.457-4.358,1.457-5.464       c1.909-1.105,4.354-0.449,5.464,1.457l1.999,3.453c1.109,1.91,0.457,4.358-1.457,5.463       C189.374,62.083,188.683,62.254,188.003,62.254z"/>
				</g>
			</g>
			<g>
				<g>
					<path fill="#3A3847" d="M325.985,301.242c-1.391,0-2.733-0.719-3.468-2l-2-3.469c-1.109-1.912-0.453-4.357,1.469-5.467       c1.905-1.102,4.358-0.445,5.467,1.469l2,3.467c1.094,1.914,0.438,4.359-1.469,5.469       C327.345,301.07,326.657,301.242,325.985,301.242z"/>
				</g>
			</g>
			<g>
				<g>
					<path fill="#3A3847" d="M168.585,75.854c-1.141,0-2.273-0.484-3.066-1.426l-2.569-3.054c-1.422-1.687-1.203-4.21,0.488-5.636       c1.695-1.421,4.21-1.203,5.636,0.488l2.57,3.054c1.422,1.687,1.203,4.21-0.488,5.636       C170.404,75.545,169.491,75.854,168.585,75.854z"/>
				</g>
			</g>
			<g>
				<g>
					<path fill="#3A3847" d="M345.966,287.244c-1.141,0-2.28-0.484-3.077-1.438l-2.562-3.061c-1.406-1.688-1.188-4.211,0.5-5.625       c1.703-1.438,4.218-1.203,5.64,0.5l2.562,3.062c1.422,1.688,1.188,4.209-0.5,5.623       C347.778,286.939,346.872,287.244,345.966,287.244z"/>
				</g>
			</g>
			<g>
				<g>
					<path fill="#3A3847" d="M151.814,92.608c-0.906,0-1.816-0.309-2.566-0.933l-3.054-2.562c-1.691-1.421-1.914-3.944-0.496-5.636       c1.43-1.691,3.944-1.91,5.636-0.496l3.054,2.562c1.691,1.421,1.914,3.944,0.496,5.636       C154.091,92.124,152.958,92.608,151.814,92.608z"/>
				</g>
			</g>
			<g>
				<g>
					<path fill="#3A3847" d="M363.229,269.998c-0.922,0-1.828-0.312-2.578-0.938l-3.062-2.578c-1.688-1.422-1.906-3.947-0.484-5.635       c1.422-1.695,3.952-1.906,5.64-0.484l3.062,2.576c1.688,1.418,1.906,3.949,0.484,5.637       C365.494,269.514,364.369,269.998,363.229,269.998z"/>
				</g>
			</g>
			<g>
				<g>
					<path fill="#3A3847" d="M138.223,112.027c-0.68,0-1.363-0.172-1.996-0.535l-3.453-1.992c-1.914-1.105-2.57-3.55-1.464-5.464       c1.101-1.917,3.534-2.565,5.464-1.464l3.452,1.992c1.914,1.105,2.57,3.55,1.465,5.464       C140.949,111.308,139.605,112.027,138.223,112.027z"/>
				</g>
			</g>
			<g>
				<g>
					<path fill="#3A3847" d="M377.226,250.009c-0.688,0-1.374-0.172-1.999-0.535l-3.469-2c-1.922-1.101-2.577-3.55-1.469-5.46       c1.109-1.917,3.531-2.573,5.469-1.468l3.468,2c1.905,1.102,2.562,3.55,1.468,5.46       C379.944,249.291,378.601,250.009,377.226,250.009z"/>
				</g>
			</g>
			<g>
				<g>
					<path fill="#3A3847" d="M128.213,133.507c-0.453,0-0.914-0.078-1.363-0.238l-3.75-1.359c-2.077-0.754-3.147-3.046-2.397-5.124       c0.753-2.078,3.042-3.128,5.124-2.398l3.749,1.359c2.078,0.754,3.148,3.047,2.398,5.124       C131.385,132.496,129.85,133.507,128.213,133.507z"/>
				</g>
			</g>
			<g>
				<g>
					<path fill="#3A3847" d="M387.536,227.896c-0.453,0-0.921-0.078-1.374-0.242l-3.75-1.367c-2.078-0.757-3.14-3.05-2.39-5.128       c0.765-2.07,3.046-3.144,5.124-2.386l3.749,1.367c2.077,0.757,3.155,3.05,2.39,5.128       C390.692,226.888,389.161,227.896,387.536,227.896z"/>
				</g>
			</g>
			<g>
				<g>
					<path fill="#3A3847" d="M122.085,156.409c-0.234,0-0.469-0.02-0.707-0.062l-3.929-0.703c-2.175-0.39-3.624-2.468-3.233-4.64       c0.387-2.179,2.464-3.648,4.64-3.234l3.929,0.703c2.176,0.391,3.625,2.468,3.234,4.64       C125.671,155.05,123.987,156.409,122.085,156.409z"/>
				</g>
			</g>
			<g>
				<g>
					<path fill="#3A3847" d="M393.848,204.322c-0.234,0-0.469-0.02-0.703-0.062l-3.921-0.695c-2.172-0.383-3.624-2.46-3.233-4.636       s2.499-3.628,4.624-3.238l3.921,0.695c2.188,0.383,3.64,2.46,3.249,4.636C397.441,202.959,395.754,204.322,393.848,204.322z"/>
				</g>
			</g>
			<g>
				<g>
					<path fill="#3A3847" d="M120.02,180.014h-3.992c-2.21,0-4-1.789-4-3.999c0-2.211,1.789-4,4-4h3.992c2.21,0,3.999,1.789,3.999,4       C124.019,178.225,122.23,180.014,120.02,180.014z"/>
				</g>
			</g>
			<g>
				<g>
					<path fill="#3A3847" d="M395.988,180.014h-4c-2.218,0-3.999-1.789-3.999-3.999c0-2.211,1.781-4,3.999-4h4       c2.202,0,3.999,1.789,3.999,4C399.987,178.225,398.19,180.014,395.988,180.014z"/>
				</g>
			</g>
			<g>
				<g>
					<path fill="#3A3847" d="M118.148,204.322c-1.906,0-3.597-1.367-3.937-3.312c-0.379-2.175,1.078-4.245,3.253-4.628l3.937-0.688       c2.179-0.387,4.246,1.078,4.628,3.253c0.378,2.175-1.078,4.245-3.254,4.628l-3.937,0.688       C118.609,204.303,118.375,204.322,118.148,204.322z"/>
				</g>
			</g>
			<g>
				<g>
					<path fill="#3A3847" d="M389.911,156.394c-1.906,0-3.593-1.367-3.921-3.312c-0.391-2.175,1.062-4.245,3.249-4.628l3.937-0.688       c2.109-0.355,4.25,1.07,4.624,3.253c0.375,2.175-1.077,4.246-3.249,4.628l-3.937,0.688       C390.38,156.374,390.146,156.394,389.911,156.394z"/>
				</g>
			</g>
			<g>
				<g>
					<path fill="#3A3847" d="M124.464,227.888c-1.637,0-3.167-1.008-3.761-2.636c-0.754-2.074,0.32-4.371,2.397-5.124l3.765-1.367       c2.074-0.73,4.371,0.32,5.124,2.397c0.754,2.074-0.32,4.371-2.398,5.124l-3.765,1.367       C125.378,227.81,124.917,227.888,124.464,227.888z"/>
				</g>
			</g>
			<g>
				<g>
					<path fill="#3A3847" d="M383.803,133.492c-1.641,0-3.172-1.012-3.765-2.645c-0.75-2.077,0.327-4.37,2.405-5.116l3.75-1.351       c2.077-0.75,4.358,0.32,5.123,2.406c0.75,2.078-0.328,4.37-2.405,5.116l-3.749,1.352       C384.709,133.417,384.256,133.492,383.803,133.492z"/>
				</g>
			</g>
			<g>
				<g>
					<path fill="#3A3847" d="M134.778,250.001c-1.383,0-2.73-0.719-3.468-2.004c-1.105-1.91-0.445-4.358,1.468-5.46l3.468-2       c1.921-1.109,4.362-0.445,5.46,1.468c1.105,1.91,0.445,4.359-1.469,5.46l-3.468,2       C136.142,249.83,135.454,250.001,134.778,250.001z"/>
				</g>
			</g>
			<g>
				<g>
					<path fill="#3A3847" d="M373.789,112.011c-1.391,0-2.734-0.719-3.469-2.008c-1.108-1.914-0.438-4.358,1.469-5.46l3.453-1.983       c1.89-1.09,4.358-0.453,5.467,1.476c1.094,1.914,0.438,4.359-1.483,5.46l-3.452,1.984       C375.148,111.839,374.461,112.011,373.789,112.011z"/>
				</g>
			</g>
			<g>
				<g>
					<path fill="#3A3847" d="M148.776,269.982c-1.145,0-2.277-0.484-3.066-1.43c-1.422-1.695-1.199-4.211,0.492-5.633l3.062-2.568       c1.707-1.414,4.218-1.199,5.632,0.492c1.422,1.691,1.199,4.217-0.492,5.631l-3.062,2.57       C150.592,269.67,149.682,269.982,148.776,269.982z"/>
				</g>
			</g>
			<g>
				<g>
					<path fill="#3A3847" d="M360.182,92.593c-1.14,0-2.28-0.488-3.077-1.433c-1.406-1.695-1.188-4.214,0.5-5.632l3.062-2.562       c1.703-1.421,4.203-1.203,5.64,0.5c1.422,1.695,1.188,4.214-0.5,5.632l-3.062,2.562       C361.994,92.288,361.088,92.593,360.182,92.593z"/>
				</g>
			</g>
			<g>
				<g>
					<path fill="#3A3847" d="M166.022,287.229c-0.906,0-1.816-0.312-2.566-0.938c-1.691-1.422-1.914-3.936-0.492-5.631l2.569-3.062       c1.418-1.695,3.941-1.914,5.632-0.492c1.691,1.422,1.914,3.938,0.492,5.633l-2.57,3.061       C168.3,286.744,167.167,287.229,166.022,287.229z"/>
				</g>
			</g>
			<g>
				<g>
					<path fill="#3A3847" d="M343.42,75.831c-0.906,0-1.828-0.305-2.578-0.934c-1.688-1.418-1.906-3.937-0.5-5.632l2.562-3.062       c1.438-1.695,3.952-1.914,5.639-0.5c1.688,1.417,1.922,3.937,0.5,5.632l-2.562,3.062       C345.685,75.342,344.56,75.831,343.42,75.831z"/>
				</g>
			</g>
			<g>
				<g>
					<path fill="#3A3847" d="M186.011,301.227c-0.675,0-1.363-0.172-1.991-0.531c-1.914-1.109-2.574-3.555-1.469-5.469l2-3.467       c1.097-1.906,3.55-2.578,5.459-1.469c1.914,1.109,2.574,3.555,1.468,5.467l-1.999,3.469       C188.741,300.508,187.394,301.227,186.011,301.227z"/>
				</g>
			</g>
			<g>
				<g>
					<path fill="#3A3847" d="M324.001,62.223c-0.687,0-1.374-0.172-2.015-0.539c-1.906-1.105-2.562-3.554-1.453-5.463l2-3.453       c1.108-1.925,3.562-2.562,5.467-1.457c1.906,1.105,2.562,3.555,1.453,5.464l-2,3.453       C326.72,61.509,325.376,62.223,324.001,62.223z"/>
				</g>
			</g>
			<g>
				<g>
					<path fill="#3A3847" d="M208.128,311.537c-0.453,0-0.914-0.078-1.363-0.234c-2.078-0.758-3.152-3.055-2.398-5.125l1.367-3.764       c0.758-2.086,3.05-3.133,5.125-2.406c2.077,0.758,3.151,3.055,2.397,5.123l-1.367,3.766       C211.295,310.529,209.765,311.537,208.128,311.537z"/>
				</g>
			</g>
			<g>
				<g>
					<path fill="#3A3847" d="M302.521,52.209c-0.452,0-0.921-0.078-1.358-0.238c-2.078-0.754-3.156-3.046-2.406-5.124l1.359-3.749       c0.75-2.074,3.077-3.128,5.124-2.398c2.077,0.754,3.155,3.047,2.39,5.124l-1.359,3.75       C305.692,51.198,304.146,52.209,302.521,52.209z"/>
				</g>
			</g>
			<g>
				<g>
					<path fill="#3A3847" d="M231.698,317.848c-0.23,0-0.465-0.016-0.699-0.062c-2.176-0.383-3.628-2.451-3.242-4.631l0.695-3.945       c0.379-2.18,2.441-3.641,4.632-3.242c2.175,0.383,3.628,2.461,3.242,4.633l-0.695,3.945       C235.291,316.488,233.604,317.848,231.698,317.848z"/>
				</g>
			</g>
			<g>
				<g>
					<path fill="#3A3847" d="M279.619,46.07c-0.234,0-0.469-0.02-0.703-0.062c-2.188-0.39-3.625-2.468-3.234-4.644l0.703-3.921       c0.375-2.172,2.5-3.636,4.641-3.23c2.171,0.391,3.624,2.468,3.233,4.644l-0.703,3.921       C283.212,44.711,281.524,46.07,279.619,46.07z"/>
				</g>
			</g>
		</g>
		<g>
			<g>
				<path fill="#3A3847" d="M255.986,449.301c-2.21,0-3.999-1.789-3.999-4v-73.322c0-2.211,1.789-3.998,3.999-3.998      c2.211,0,3.999,1.787,3.999,3.998v73.322C259.985,447.512,258.197,449.301,255.986,449.301z"/>
			</g>
		</g>
		<g>
			<g>
				<path fill="#3A3847" d="M255.986,511.953c-17.665,0-23.995-102.941-23.995-103.98c0-13.232,10.763-23.996,23.995-23.996      c13.229,0,23.992,10.764,23.992,23.996C279.979,409.012,273.651,511.953,255.986,511.953z M255.986,391.975      c-8.822,0-15.997,7.172-15.997,15.998c0,15.809,8.542,85.375,15.997,95.326c7.456-9.951,15.993-79.518,15.993-95.326      C271.979,399.146,264.809,391.975,255.986,391.975z"/>
			</g>
		</g>
		<g>
			<g>
				<path fill="#3A3847" d="M255.986,375.979c-8.822,0-15.997-7.172-15.997-15.998s7.175-15.996,15.997-15.996      s15.993,7.17,15.993,15.996S264.809,375.979,255.986,375.979z M255.986,351.982c-4.409,0-7.998,3.594-7.998,7.998      c0,4.406,3.589,8,7.998,8s7.998-3.594,7.998-8C263.984,355.576,260.396,351.982,255.986,351.982z"/>
			</g>
		</g>
		<g>
			<g>
				<path fill="#3A3847" d="M255.986,351.982c-2.21,0-3.999-1.789-3.999-4v-17.996c0-2.211,1.789-3.998,3.999-3.998      c2.211,0,3.999,1.787,3.999,3.998v17.996C259.985,350.193,258.197,351.982,255.986,351.982z"/>
			</g>
		</g>
		<g>
			<g>
				<path fill="#3A3847" d="M255.986,32.042c-8.822,0-15.997-7.175-15.997-15.997s7.175-15.997,15.997-15.997      s15.993,7.175,15.993,15.997S264.809,32.042,255.986,32.042z M255.986,8.046c-4.409,0-7.998,3.589-7.998,7.999      s3.589,7.999,7.998,7.999s7.998-3.589,7.998-7.999S260.396,8.046,255.986,8.046z"/>
			</g>
		</g>
		<g>
			<g>
				<g>
					<path fill="#3A3847" d="M187.999,347.982c-2.21,0-3.999-1.787-3.999-3.998v-27.996c0-2.209,1.789-3.998,3.999-3.998       s3.999,1.789,3.999,3.998v27.996C191.998,346.195,190.209,347.982,187.999,347.982z"/>
				</g>
			</g>
			<g>
				<g>
					<path fill="#3A3847" d="M187.999,431.967c-6.616,0-11.998-5.381-11.998-11.996c0-6.617,5.382-11.998,11.998-11.998       s11.998,5.381,11.998,11.998C199.997,426.586,194.615,431.967,187.999,431.967z M187.999,415.971c-2.207,0-3.999,1.797-3.999,4       c0,2.201,1.792,3.998,3.999,3.998s3.999-1.797,3.999-3.998C191.998,417.768,190.206,415.971,187.999,415.971z"/>
				</g>
			</g>
			<g>
				<g>
					<path fill="#3A3847" d="M187.999,415.971c-2.21,0-3.999-1.789-3.999-4v-43.99c0-2.211,1.789-4,3.999-4s3.999,1.789,3.999,4       v43.99C191.998,414.182,190.209,415.971,187.999,415.971z"/>
				</g>
			</g>
			<g>
				<g>
					<path fill="#3A3847" d="M187.999,471.961c-2.21,0-3.999-1.789-3.999-4v-39.992c0-2.211,1.789-4,3.999-4s3.999,1.789,3.999,4       v39.992C191.998,470.172,190.209,471.961,187.999,471.961z"/>
				</g>
			</g>
			<g>
				<g>
					<path fill="#3A3847" d="M195.998,391.975H180c-2.21,0-4-1.789-4-3.998c0-2.211,1.789-4,4-4h15.997c2.21,0,4,1.789,4,4       C199.997,390.186,198.208,391.975,195.998,391.975z"/>
				</g>
			</g>
			<g>
				<g>
					<path fill="#3A3847" d="M195.998,455.963H180c-2.21,0-4-1.789-4-3.998c0-2.211,1.789-4,4-4h15.997c2.21,0,4,1.789,4,4       C199.997,454.174,198.208,455.963,195.998,455.963z"/>
				</g>
			</g>
			<g>
				<g>
					<path fill="#3A3847" d="M187.999,371.979c-1.023,0-2.047-0.391-2.828-1.172l-11.998-11.998c-0.75-0.75-1.172-1.764-1.172-2.826       s0.422-2.078,1.172-2.828l12.005-11.998c0.75-0.75,1.769-1.172,2.828-1.172l0,0c1.062,0,2.078,0.422,2.828,1.172l11.99,11.998       c1.562,1.562,1.562,4.094,0,5.654l-11.998,11.998C190.045,371.588,189.022,371.979,187.999,371.979z M181.656,355.982       l6.343,6.342l6.343-6.342l-6.335-6.344L181.656,355.982z"/>
				</g>
			</g>
		</g>
		<g>
			<g>
				<g>
					<path fill="#3A3847" d="M323.985,347.982c-2.218,0-3.999-1.787-3.999-3.998v-27.996c0-2.209,1.781-3.998,3.999-3.998       c2.203,0,3.999,1.789,3.999,3.998v27.996C327.984,346.195,326.188,347.982,323.985,347.982z"/>
				</g>
			</g>
			<g>
				<g>
					<path fill="#3A3847" d="M323.985,431.967c-6.624,0-11.997-5.381-11.997-11.996c0-6.617,5.373-11.998,11.997-11.998       c6.608,0,11.998,5.381,11.998,11.998C335.983,426.586,330.594,431.967,323.985,431.967z M323.985,415.971       c-2.202,0-3.999,1.797-3.999,4c0,2.201,1.797,3.998,3.999,3.998c2.203,0,3.999-1.797,3.999-3.998       C327.984,417.768,326.188,415.971,323.985,415.971z"/>
				</g>
			</g>
			<g>
				<g>
					<path fill="#3A3847" d="M323.985,415.971c-2.218,0-3.999-1.789-3.999-4v-43.99c0-2.211,1.781-4,3.999-4       c2.203,0,3.999,1.789,3.999,4v43.99C327.984,414.182,326.188,415.971,323.985,415.971z"/>
				</g>
			</g>
			<g>
				<g>
					<path fill="#3A3847" d="M323.985,471.961c-2.218,0-3.999-1.789-3.999-4v-39.992c0-2.211,1.781-4,3.999-4       c2.203,0,3.999,1.789,3.999,4v39.992C327.984,470.172,326.188,471.961,323.985,471.961z"/>
				</g>
			</g>
			<g>
				<g>
					<path fill="#3A3847" d="M331.984,391.975h-15.997c-2.219,0-3.999-1.789-3.999-3.998c0-2.211,1.78-4,3.999-4h15.997       c2.202,0,3.999,1.789,3.999,4C335.983,390.186,334.187,391.975,331.984,391.975z"/>
				</g>
			</g>
			<g>
				<g>
					<path fill="#3A3847" d="M331.984,455.963h-15.997c-2.219,0-3.999-1.789-3.999-3.998c0-2.211,1.78-4,3.999-4h15.997       c2.202,0,3.999,1.789,3.999,4C335.983,454.174,334.187,455.963,331.984,455.963z"/>
				</g>
			</g>
			<g>
				<g>
					<path fill="#3A3847" d="M323.985,371.979c-1.03,0-2.046-0.391-2.827-1.172l-11.998-11.998c-1.562-1.561-1.562-4.092,0-5.654       l11.998-11.998c1.562-1.562,4.093-1.562,5.655,0l11.997,11.998c1.562,1.562,1.562,4.094,0,5.654l-11.997,11.998       C326.032,371.588,325.001,371.979,323.985,371.979z M317.643,355.982l6.343,6.342l6.343-6.342l-6.343-6.344L317.643,355.982z"/>
				</g>
			</g>
		</g>
	</g>
</g>
</svg>
